<svg width="101" height="100" viewBox="0 0 101 100" fill="none" xmlns="http://www.w3.org/2000/svg">
<path d="M85.875 27.9583L52.5416 9.45825C51.2916 8.74992 49.7501 8.74992 48.5001 9.45825L15.1668 27.9583C13.8334 28.7083 13.0417 30.0832 13.0417 31.5832V68.3332C13.0417 69.8332 13.8751 71.2499 15.1668 71.9582L48.5833 90.5415C49.7916 91.2082 51.2499 91.2499 52.4582 90.6249L69.25 82.2499C70.5417 81.5833 72.0833 81.6665 73.3333 82.4582L81.6249 87.6665C84.4165 89.4165 88 87.4166 88 84.1249V73.2499C88 71.7499 87.1666 70.3333 85.875 69.6249L73.375 62.7082C72.125 61.9999 70.5834 61.9999 69.3334 62.7082L52.5416 72.0415C51.2916 72.7499 49.7501 72.7499 48.5001 72.0415L31.8334 62.7916C30.5001 62.0416 29.7084 60.6665 29.7084 59.1665V40.9166C29.7084 39.4166 30.5418 37.9999 31.8334 37.2916L48.5001 28.0415C49.7501 27.3332 51.2916 27.3332 52.5416 28.0415L69.2083 37.2916C70.5416 38.0416 71.3333 39.4166 71.3333 40.9166V53.6666C71.3333 57.0416 75.125 58.9999 77.875 57.0832L86.2084 51.2916C87.3334 50.4999 88 49.2499 88 47.8749V31.6666C88 30.1249 87.1666 28.7083 85.875 27.9583Z" fill="#006DCC"/>
<path d="M66.5833 43.4166V56.5416C66.5833 57.9999 65.7916 59.3333 64.5 60.0416L52.4582 66.7499C51.2499 67.4166 49.7501 67.4166 48.5418 66.7499L36.5001 60.0416C35.2084 59.3333 34.4167 57.9999 34.4167 56.5416V43.4166C34.4167 41.9582 35.2084 40.6249 36.5001 39.9166L48.5418 33.2083C49.7501 32.5416 51.2499 32.5416 52.4582 33.2083L64.5 39.9166C65.7916 40.6249 66.5833 41.9582 66.5833 43.4166Z" fill="#006DCC"/>
</svg>
