<svg width="18" height="18" viewBox="0 0 18 18" fill="none" xmlns="http://www.w3.org/2000/svg">
<path d="M15.9525 6.88498C15.735 6.53998 15.5025 6.21748 15.2625 5.91748C14.985 5.56498 14.46 5.53498 14.145 5.84998L11.895 8.09998C12.06 8.59498 12.09 9.16498 11.94 9.75748C11.6775 10.815 10.8225 11.67 9.76499 11.9325C9.17249 12.0825 8.60249 12.0525 8.10749 11.8875C8.10749 11.8875 7.03499 12.96 6.26249 13.7325C5.88749 14.1075 6.00749 14.7675 6.50999 14.9625C7.31249 15.27 8.14499 15.4275 8.99999 15.4275C10.335 15.4275 11.6325 15.0375 12.8175 14.31C14.025 13.56 15.1125 12.4575 15.99 11.055C16.7025 9.92248 16.665 8.01748 15.9525 6.88498Z" fill="#999999"/>
<path d="M10.515 7.48498L7.48501 10.515C7.10251 10.125 6.85501 9.58498 6.85501 8.99998C6.85501 7.82248 7.81501 6.85498 9.00001 6.85498C9.58501 6.85498 10.125 7.10248 10.515 7.48498Z" fill="#999999"/>
<path d="M13.6875 4.31251L11.145 6.85501C10.5975 6.30001 9.84 5.97001 9 5.97001C7.32 5.97001 5.97 7.32751 5.97 9.00001C5.97 9.84001 6.3075 10.5975 6.855 11.145L4.32 13.6875H4.3125C3.48 13.0125 2.715 12.15 2.0625 11.13C1.3125 9.95251 1.3125 8.04001 2.0625 6.86251C2.9325 5.49751 3.9975 4.42501 5.1825 3.69001C6.3675 2.97001 7.665 2.57251 9 2.57251C10.6725 2.57251 12.2925 3.18751 13.6875 4.31251Z" fill="#999999"/>
<path d="M11.145 9.00006C11.145 10.1776 10.185 11.1451 9 11.1451C8.955 11.1451 8.9175 11.1451 8.8725 11.1301L11.13 8.87256C11.145 8.91756 11.145 8.95506 11.145 9.00006Z" fill="#999999"/>
<path d="M16.3275 1.67241C16.1025 1.44741 15.735 1.44741 15.51 1.67241L1.6725 15.5174C1.4475 15.7424 1.4475 16.1099 1.6725 16.3349C1.785 16.4399 1.9275 16.4999 2.0775 16.4999C2.2275 16.4999 2.37 16.4399 2.4825 16.3274L16.3275 2.48241C16.56 2.25741 16.56 1.89741 16.3275 1.67241Z" fill="#999999"/>
</svg>
