<svg width="16" height="18" viewBox="0 0 16 18" fill="none" xmlns="http://www.w3.org/2000/svg">
<path d="M7.987 0.666748C10.5443 0.666748 12.6022 2.67947 12.6022 5.16382V6.44116C14.0374 6.88913 15.0835 8.18829 15.0837 9.73999V13.8542C15.0837 15.7754 13.4906 17.3337 11.527 17.3337H4.4743C2.50977 17.3337 0.916687 15.7755 0.916687 13.8542V9.73999C0.916879 8.18829 1.96381 6.88913 3.39813 6.44116V5.16382C3.4066 2.67957 5.46373 0.666918 7.987 0.666748ZM7.99579 10.1541C7.58945 10.1541 7.25964 10.4764 7.25946 10.8738V12.7126C7.25953 13.1184 7.58937 13.4412 7.99579 13.4412C8.41067 13.4412 8.74084 13.1184 8.74091 12.7126V10.8738C8.74072 10.4764 8.4106 10.1541 7.99579 10.1541ZM8.00458 2.11597C6.28561 2.11597 4.88805 3.47442 4.87958 5.14722V6.26147H11.1208V5.16382C11.1208 3.48285 9.7234 2.11614 8.00458 2.11597Z" fill="#999999"/>
</svg>
